<svg width="110" height="40" viewBox="0 0 110 40" xmlns="http://www.w3.org/2000/svg"><g fill="#FFF"><path d="M7.71 22.17c-4.358 0-7.69-2.74-7.69-7.659s3.486-7.757 7.876-7.757c4.39 0 7.658 2.802 7.658 7.658 0 4.855-3.518 7.756-7.845 7.756zm.062-11.768c-1.993 0-2.988 1.588-2.988 4.079 0 2.49 1.026 4.015 3.019 4.015s2.988-1.552 2.988-4.047c0-2.462-1.028-4.046-3.02-4.046zm27.704 2.771c0-1.743-.747-2.334-1.961-2.334-.965 0-1.743.436-2.334.934v9.93h-4.795v-8.53c0-1.743-.779-2.334-1.993-2.334a3.57 3.57 0 00-2.334.866v9.992h-4.795V7.05l4.795-.008v1.863c1.277-1.339 2.708-2.148 4.608-2.148 1.833 0 3.362.871 4.078 2.584 1.338-1.588 3.02-2.584 5.012-2.584 2.833 0 4.513 1.898 4.513 5.012v9.93h-4.795l.001-8.527zm9.618-8c-1.743 0-2.831-.903-2.831-2.553 0-1.712 1.088-2.583 2.831-2.583 1.774 0 2.834.871 2.834 2.583 0 1.65-1.06 2.553-2.834 2.553zm-2.397 1.883l4.795-.009v14.655h-4.795V7.056zM55.234 22.17c-1.993 0-4.607-.437-6.132-1.277l.934-3.455c1.712.871 3.58 1.37 5.291 1.37 1.307 0 1.962-.406 1.962-1.184 0-.846-.81-1.121-2.46-1.493-3.362-.686-5.51-1.899-5.51-4.732 0-2.708 2.365-4.638 6.382-4.638 1.93 0 4.45.564 5.883 1.245l-.964 3.417c-1.65-.846-3.612-1.307-4.981-1.307-1.183 0-1.774.373-1.774 1.09 0 .778.902 1.09 2.49 1.431 3.393.748 5.448 1.867 5.448 4.763-.001 2.626-2.304 4.77-6.569 4.77zm15.968-3.518c1.588 0 3.27-.564 4.732-1.4l.467 3.704c-1.463.748-3.518 1.184-5.641 1.184-4.887 0-8.094-2.708-8.094-7.565 0-4.731 3.244-7.813 7.844-7.813 4.11 0 6.346 2.46 6.346 6.064 0 .779-.093 1.93-.312 2.553l-9.183.155v.062c.17 1.966 1.476 3.056 3.841 3.056zm1.215-5.819c0-1.743-.717-2.77-2.21-2.77-1.65 0-2.646 1.43-2.802 3.08l5.012-.028v-.282z"/><g opacity=".65"><path d="M85.803 23.207a7.71 7.71 0 100 15.42 7.71 7.71 0 000-15.42zm0 13.087a5.377 5.377 0 110-10.757 5.377 5.377 0 010 10.759v-.002zM102.27 6.76a7.71 7.71 0 100 15.42 7.71 7.71 0 000-15.42zm0 13.088a5.377 5.377 0 115.378-5.377 5.384 5.384 0 01-5.378 5.377z"/><path d="M85.803 6.76a7.714 7.714 0 105.522 2.332h2.188V6.76h-7.71zm5.379 7.71a5.377 5.377 0 11-5.378-5.378 5.384 5.384 0 015.378 5.379z"/></g></g></svg>